PathFileType	4	(X/Y/Z)	/Users/itak/Documents/Research/Walk-IL/dataset/trc/00293_00010.trc
DataRate	CameraRate	NumFrames	NumMarkers	Units	OrigDataRate	OrigDataStartFrame	OrigNumFrames
100.000000	100.000000	4	53	mm	100.000000	624	714
Frame#	Time	RPSI			LPSI			L3			STRN			T10			C7			CLAV			RBAK			LBAK			LSHO			LUPA			LAEL			LAOL			LWTS			LWPS			LFRA			LIFD			LHPS			LHTS			RSHO			RUPA			RAEL			RAOL			RWTS			RWPS			RFRA			RIFD			RHPS			RBHD			LFHD			RFHD			LBHD			LHIP			RHIP			RASI			LASI			LKNE			LTHI			LANK			LTIP			LTOE			LMT1			LMT5			LHEE			RKNE			RTHI			RANK			RTIP			RTOE			RMT1			RMT5			RHEE			RHTS			
		X1	Y1	Z1	X2	Y2	Z2	X3	Y3	Z3	X4	Y4	Z4	X5	Y5	Z5	X6	Y6	Z6	X7	Y7	Z7	X8	Y8	Z8	X9	Y9	Z9	X10	Y10	Z10	X11	Y11	Z11	X12	Y12	Z12	X13	Y13	Z13	X14	Y14	Z14	X15	Y15	Z15	X16	Y16	Z16	X17	Y17	Z17	X18	Y18	Z18	X19	Y19	Z19	X20	Y20	Z20	X21	Y21	Z21	X22	Y22	Z22	X23	Y23	Z23	X24	Y24	Z24	X25	Y25	Z25	X26	Y26	Z26	X27	Y27	Z27	X28	Y28	Z28	X29	Y29	Z29	X30	Y30	Z30	X31	Y31	Z31	X32	Y32	Z32	X33	Y33	Z33	X34	Y34	Z34	X35	Y35	Z35	X36	Y36	Z36	X37	Y37	Z37	X38	Y38	Z38	X39	Y39	Z39	X40	Y40	Z40	X41	Y41	Z41	X42	Y42	Z42	X43	Y43	Z43	X44	Y44	Z44	X45	Y45	Z45	X46	Y46	Z46	X47	Y47	Z47	X48	Y48	Z48	X49	Y49	Z49	X50	Y50	Z50	X51	Y51	Z51	X52	Y52	Z52	X53	Y53	Z53	

625	6.24	491.6754760742188	998.4088745117188	622.4061889648438	517.4237670898438	997.652587890625	795.6029052734375	493.3701477050781	1069.54150390625	722.4405517578125	254.1620941162109	1250.6884765625	776.6624755859375	514.8383178710938	1187.538940429688	734.4075927734375	476.1471862792969	1430.595458984375	781.3681640625	321.2996826171875	1347.46630859375	782.347412109375	519.1483764648438	1301.9609375	685.7542114257812	503.5830078125	1381.87060546875	877.15380859375	422.125244140625	1387.7900390625	937.865966796875	451.0567016601562	1270.583251953125	1009.211669921875	419.2899475097656	1080.765380859375	1050.600830078125	453.443359375	1041.786987304688	980.4197998046875	250.7000122070312	929.2114868164062	1091.308227539062	302.1209716796875	902.8201904296875	1137.325927734375	379.0363159179688	995.7338256835938	1088.590942382812	161.3260345458984	781.099853515625	1156.379638671875	255.4768218994141	833.331298828125	1163.185424804688	198.2644500732422	862.7778930664062	1149.296264648438	395.4214782714844	1425.135864257812	629.6546020507812	398.3570556640625	1375.064697265625	556.5821533203125	428.4268493652344	1118.8564453125	479.6321716308594	464.2550659179688	1103.854736328125	566.2261962890625	343.838134765625	885.9183959960938	506.9018249511719	383.9357604980469	893.8045654296875	431.1422729492188	409.1637573242188	1052.096069335938	459.4598999023438	358.0945434570312	700.9468383789062	483.7226257324219	371.3940124511719	780.9127197265625	421.1742248535156	366.4753112792969	1611.523315429688	753.31005859375	219.1157836914062	1535.71630859375	884.4612426757812	205.8523712158203	1548.9775390625	791.9183959960938	388.91748046875	1581.111450195312	895.2153930664062	464.6261596679688	952.705810546875	902.4020385742188	370.5986328125	952.9199829101562	537.011962890625	269.5740356445312	963.8439331054688	628.7763671875	317.1462097167969	958.9573364257812	875.8330688476562	399.7935180664062	489.8658142089844	880.0637817382812	408.7393493652344	632.0540771484375	898.9384765625	475.6542053222656	40.25288009643555	836.7606811523438	443.2887573242188	262.2575073242188	867.5201416015625	259.0260620117188	35.76276779174805	808.9306640625	322.0455017089844	36.21152877807617	759.4611206054688	356.49609375	39.79534912109375	867.755615234375	509.4905700683594	42.07711410522461	770.0576171875	260.28369140625	488.2541198730469	604.9856567382812	284.5235595703125	747.9605102539062	558.6790161132812	383.633544921875	46.31673812866211	613.1376953125	265.468017578125	361.5928039550781	619.6790771484375	225.5780944824219	67.62796020507812	727.3384399414062	291.1560974121094	55.70458602905273	746.9712524414062	278.7834167480469	37.86201858520508	630.7271728515625	449.87255859375	45.67391586303711	638.4325561523438	324.3233947753906	770.048828125	474.0345458984375	
626	6.25	490.5575561523438	997.8729248046875	623.4047241210938	516.1033935546875	997.3059692382812	796.6307373046875	492.0974426269531	1069.133422851562	723.1261596679688	252.8288726806641	1250.374267578125	776.8845825195312	513.712890625	1187.335693359375	734.6513061523438	474.865966796875	1430.386840820312	781.4105834960938	320.0111389160156	1347.201171875	782.4715576171875	517.8383178710938	1301.755859375	685.806396484375	502.3402099609375	1381.728271484375	877.2673950195312	420.8301696777344	1387.450561523438	938.00146484375	449.3312377929688	1270.02685546875	1009.128967285156	416.550048828125	1079.5771484375	1049.410400390625	451.7190551757812	1041.395629882812	979.2813110351562	248.2295227050781	926.1840209960938	1085.837768554688	299.1326293945312	899.7564697265625	1132.42724609375	376.0822143554688	993.8427124023438	1085.82373046875	158.9435729980469	776.7207641601562	1147.95166015625	252.5913848876953	829.6458129882812	1156.848266601562	195.3903656005859	858.708740234375	1142.300048828125	393.8621520996094	1424.718017578125	629.660888671875	396.6741943359375	1374.471313476562	556.6226806640625	426.5824584960938	1117.792358398438	480.6891479492188	463.0259399414062	1103.446166992188	567.1095581054688	344.0426635742188	884.2081298828125	509.5316467285156	383.492431640625	892.2052001953125	433.4407348632812	407.5659790039062	1050.81689453125	460.9643249511719	360.2915954589844	699.281494140625	486.9835510253906	372.1161193847656	779.0810546875	424.0063781738281	365.2926330566406	1611.339111328125	753.6307983398438	217.9606323242188	1535.47412109375	884.7964477539062	204.6368560791016	1548.883422851562	792.2618408203125	387.7770385742188	1580.642333984375	895.48876953125	463.1361694335938	952.5904541015625	903.4427490234375	369.5939331054688	952.1992797851562	537.9677734375	268.3830261230469	963.2828979492188	629.5156860351562	315.4737854003906	958.9817504882812	876.5179443359375	399.1476745605469	489.6383972167969	880.38330078125	407.7098083496094	631.81884765625	899.57861328125	475.6648559570312	40.24174880981445	836.7183227539062	442.9940490722656	262.1349182128906	867.7433471679688	258.9922180175781	35.74304580688477	808.8770141601562	321.7431945800781	35.75907135009766	759.242431640625	356.5059509277344	39.85137176513672	867.6350708007812	509.5213623046875	41.94729232788086	770.0072021484375	262.12109375	486.8695983886719	605.7897338867188	284.0057983398438	746.973388671875	559.4038696289062	382.1671142578125	44.768310546875	614.4918823242188	266.6602478027344	360.3824462890625	620.52001953125	223.2882690429688	65.19172668457031	728.3899536132812	289.140380859375	53.52628707885742	747.8359375	276.9601440429688	36.83972549438477	631.539794921875	448.1341857910156	43.10186386108398	640.2677612304688	325.5943298339844	767.95068359375	477.291259765625	
627	6.26	489.3683471679688	997.2017211914062	624.2875366210938	514.807373046875	996.898193359375	797.5419921875	490.8263549804688	1068.631591796875	723.6888427734375	251.5377349853516	1249.974365234375	777.0588989257812	512.5619506835938	1187.03369140625	734.750732421875	473.62353515625	1430.111328125	781.2743530273438	318.7423095703125	1346.859619140625	782.4834594726562	516.5209350585938	1301.444946289062	685.700439453125	501.1780090332031	1381.53173828125	877.2012329101562	419.6325378417969	1387.051635742188	937.9911499023438	447.6989135742188	1269.40771484375	1008.894897460938	413.8955078125	1078.28955078125	1048.106201171875	450.1092834472656	1040.95361328125	978.0307006835938	246.0260009765625	922.845703125	1079.986206054688	296.3887329101562	896.4168090820312	1127.179931640625	373.2398376464844	991.797607421875	1082.823852539062	157.1123809814453	771.8663330078125	1138.973999023438	250.1296539306641	825.6114501953125	1150.07080078125	192.8964538574219	854.2250366210938	1134.84375	392.303466796875	1424.188354492188	629.5128173828125	394.9893493652344	1373.759887695312	556.52587890625	424.8039245605469	1116.63720703125	481.5694274902344	461.8671875	1102.95166015625	567.8159790039062	344.0584716796875	882.5759887695312	512.1547241210938	382.8995666503906	890.5138549804688	435.7301635742188	405.9994201660156	1049.4560546875	462.3367919921875	361.9939270019531	697.7202758789062	490.4480285644531	372.4340515136719	777.1966552734375	426.9304504394531	364.1346130371094	1611.10107421875	753.8208618164062	216.8497924804688	1535.167602539062	885.0528564453125	203.4591827392578	1548.733764648438	792.540283203125	386.689453125	1580.126220703125	895.6214599609375	461.7073974609375	952.4645385742188	904.4152221679688	368.4746398925781	951.3093872070312	538.8948364257812	267.1336975097656	962.5836791992188	630.288818359375	313.8960266113281	958.989013671875	877.2059326171875	398.5667419433594	489.3825073242188	880.6788940429688	406.7806091308594	631.5715942382812	900.2066650390625	475.6849975585938	40.22356033325195	836.6605834960938	442.7503662109375	261.997314453125	867.9299926757812	258.9728393554688	35.7313117980957	808.8252563476562	321.5105895996094	35.31060791015625	758.94677734375	356.5164794921875	39.90335464477539	867.5026245117188	509.5623779296875	41.77033996582031	769.9400634765625	263.8654479980469	485.4127197265625	606.5292358398438	283.4336242675781	745.8570556640625	560.207763671875	381.2937622070312	43.54235458374023	615.3670654296875	267.9464416503906	359.1091003417969	621.2694091796875	221.6334991455078	62.22676849365234	729.4542846679688	287.9100952148438	51.21762466430664	748.4008178710938	275.773193359375	35.84968948364258	632.1242065429688	447.0065002441406	40.87921524047852	641.54296875	326.4476928710938	765.9763793945312	480.6330261230469	
628	6.27	488.1152954101562	996.4269409179688	625.054931640625	513.5319213867188	996.4466552734375	798.34033203125	489.5492553710938	1068.045288085938	724.1353149414062	250.2988739013672	1249.495727539062	777.1928100585938	511.3854064941406	1186.641479492188	734.7177734375	472.4242248535156	1429.785034179688	780.9636840820312	317.4906005859375	1346.451049804688	782.387939453125	515.2040405273438	1301.031372070312	685.443115234375	500.1033020019531	1381.295043945312	876.9619750976562	418.5371704101562	1386.604858398438	937.8431396484375	446.1630249023438	1268.730712890625	1008.512451171875	411.327392578125	1076.909790039062	1046.696166992188	448.5995483398438	1040.46630859375	976.6769409179688	244.0959777832031	919.2208862304688	1073.763061523438	293.9134826660156	892.8231811523438	1121.593627929688	370.5075378417969	989.6102294921875	1079.600219726562	155.8631286621094	766.5745849609375	1129.480712890625	248.10009765625	821.2521362304688	1142.869262695312	190.7914886474609	849.3582153320312	1126.929931640625	390.7501220703125	1423.553100585938	629.212646484375	393.307861328125	1372.929565429688	556.2977905273438	423.0819091796875	1115.390014648438	482.2766418457031	460.7734680175781	1102.361328125	568.3521728515625	343.8686218261719	881.0153198242188	514.7647094726562	382.1331176757812	888.7365112304688	438.005126953125	404.4463195800781	1048.013427734375	463.5775756835938	363.2957763671875	696.2385864257812	494.1570434570312	372.3330383300781	775.257568359375	429.94287109375	362.9867248535156	1610.831909179688	753.8812866210938	215.7763061523438	1534.804077148438	885.2300415039062	202.3157501220703	1548.5263671875	792.756591796875	385.6520690917969	1579.59033203125	895.6144409179688	460.3386840820312	952.3345947265625	905.3193969726562	367.2471923828125	950.281494140625	539.7850952148438	265.8304443359375	961.759033203125	631.0885620117188	312.4142761230469	958.9796752929688	877.9012451171875	398.07861328125	489.1083374023438	880.9426879882812	405.9578552246094	631.3197021484375	900.8081665039062	475.7154235839844	40.20236587524414	836.5890502929688	442.576416015625	261.8525695800781	868.0638427734375	258.9683227539062	35.72634887695312	808.7755737304688	321.3642883300781	34.93526458740234	758.6281127929688	356.5274047851562	39.9544563293457	867.360107421875	509.611083984375	41.55898666381836	769.8576049804688	265.5397338867188	483.9245910644531	607.2246704101562	282.8430480957031	744.6354370117188	561.069580078125	380.8980712890625	42.6112174987793	615.8502807617188	269.2876281738281	357.7970886230469	621.9703979492188	220.5025329589844	58.93796920776367	730.5578002929688	287.307373046875	48.89240264892578	748.7723999023438	275.1113586425781	34.96089172363281	632.5696411132812	446.3834533691406	38.95634460449219	642.3455200195312	326.8968505859375	764.1095581054688	484.0692749023438	
